# xmcd
# 
# Track frame offsets:
#     183
#     24770
#     48018
#     71678
#     94873
#     124368
#     147120
#     167835
#     186028
#     208685
#     224843
# 
# Disc length: 3316
# 
# Revision: 3
# Processed by: cddbd v1.5.2PL0 Copyright (c) Steve Scherf et al.
# Submitted via: fre:ac v1.0.31
# 
DISCID=a10cf20b
DTITLE=Various Artist - This Is... Trip Hop - CD 3 Mixed
DYEAR=1996
DGENRE=Trip Hop
TTITLE0=Solo - Thirst
TTITLE1=Bubbles - Reverb Disaster
TTITLE2=Yogi - Early Lady
TTITLE3=Perpetual Motion - Mellow Madness
TTITLE4=Holy Haze - Rising Star
TTITLE5=The Assassin - Source
TTITLE6=Smiler - The Chase
TTITLE7=Maad - Anxiety
TTITLE8=Bluntz - Aphrohead
TTITLE9=Pusher - Under the Influence
TTITLE10=Substance - Fly by Night
EXTD=
EXTT0=
EXTT1=
EXTT2=
EXTT3=
EXTT4=
EXTT5=
EXTT6=
EXTT7=
EXTT8=
EXTT9=
EXTT10=
PLAYORDER=
